<svg width="1440" height="900" viewBox="0 0 1440 900" fill="none" xmlns="http://www.w3.org/2000/svg"><rect width="1440" height="900" fill="#F3DABF"/><rect x="74" y="66" width="1292" height="768" rx="20" fill="#FFF9F0"/><rect x="74" y="66" width="1292" height="70" rx="20" fill="#A44B2B"/><text x="114" y="110" fill="#FFF9F0" font-family="Georgia, serif" font-size="27" font-weight="700">Kwentong Kusina</text><text x="1042" y="109" fill="#FFE5C8" font-family="Arial, sans-serif" font-size="16">Discover · Review · Share</text><text x="111" y="207" fill="#A44B2B" font-family="Arial, sans-serif" font-size="16" font-weight="700">FIND YOUR NEXT FAVORITE</text><text x="111" y="270" fill="#302820" font-family="Georgia, serif" font-size="54" font-weight="700">Stories worth<br/>tasting.</text><rect x="110" y="340" width="398" height="52" rx="26" fill="#FFF" stroke="#E7C7A5"/><text x="140" y="373" fill="#827263" font-family="Arial, sans-serif" font-size="16">Search food, places, or neighborhoods</text><rect x="111" y="460" width="284" height="274" rx="16" fill="#EAA26E"/><circle cx="253" cy="597" r="95" fill="#FEE0B4"/><circle cx="253" cy="597" r="55" fill="#B65430"/><path d="M202 604C231 566 270 566 305 604" stroke="#FFD87F" stroke-width="18" stroke-linecap="round"/><rect x="420" y="460" width="284" height="274" rx="16" fill="#466B62"/><path d="M445 682C487 605 534 649 577 566C611 499 647 558 680 503" stroke="#C8E36A" stroke-width="10" stroke-linecap="round"/><circle cx="496" cy="611" r="13" fill="#FFF8ED"/><circle cx="609" cy="553" r="13" fill="#FFF8ED"/><rect x="753" y="173" width="548" height="561" rx="16" fill="#302820"/><rect x="785" y="207" width="484" height="272" rx="13" fill="#D9724B"/><circle cx="1027" cy="343" r="102" fill="#FDE3B9"/><path d="M933 345C978 280 1081 276 1133 353" stroke="#7E351F" stroke-width="24" stroke-linecap="round"/><text x="785" y="537" fill="#FFF9F0" font-family="Georgia, serif" font-size="35" font-weight="700">A community table for<br/>local food stories.</text><rect x="785" y="626" width="130" height="34" rx="17" fill="#C8E36A"/><text x="811" y="648" fill="#302820" font-family="Arial, sans-serif" font-size="14" font-weight="700">Explore places</text></svg>
