<svg width="1440" height="900" viewBox="0 0 1440 900" fill="none" xmlns="http://www.w3.org/2000/svg">
<rect width="1440" height="900" fill="#DCE6DE"/><rect x="74" y="66" width="1292" height="768" rx="20" fill="#F8F8F3"/><rect x="74" y="66" width="1292" height="66" rx="20" fill="#173B35"/><circle cx="110" cy="99" r="7" fill="#C8E36A"/><circle cx="134" cy="99" r="7" fill="#D9724B"/><text x="176" y="105" fill="#E7EBDD" font-family="Arial, sans-serif" font-size="18">INSTAT Reading Room</text><rect x="105" y="166" width="230" height="632" rx="12" fill="#EAEDE7"/><text x="139" y="215" fill="#173B35" font-family="Arial, sans-serif" font-size="25" font-weight="700">Repository</text><rect x="139" y="252" width="162" height="13" rx="6.5" fill="#A4B1A7"/><rect x="139" y="290" width="128" height="13" rx="6.5" fill="#C1C9C0"/><rect x="139" y="328" width="150" height="13" rx="6.5" fill="#C1C9C0"/><rect x="370" y="181" width="528" height="48" rx="10" fill="#E7E9E3"/><text x="398" y="212" fill="#6C756C" font-family="Arial, sans-serif" font-size="16">Search titles, authors, and keywords</text><text x="371" y="282" fill="#173B35" font-family="Arial, sans-serif" font-size="34" font-weight="700">Material catalog</text><g fill="#FFFFFF" stroke="#D5D9D2"><rect x="370" y="320" width="258" height="198" rx="12"/><rect x="652" y="320" width="258" height="198" rx="12"/><rect x="370" y="542" width="258" height="198" rx="12"/><rect x="652" y="542" width="258" height="198" rx="12"/></g><g fill="#C8E36A"><rect x="392" y="344" width="70" height="92" rx="7"/><rect x="674" y="344" width="70" height="92" rx="7"/><rect x="392" y="566" width="70" height="92" rx="7"/><rect x="674" y="566" width="70" height="92" rx="7"/></g><g fill="#173B35"><rect x="480" y="355" width="118" height="15" rx="7"/><rect x="480" y="577" width="118" height="15" rx="7"/></g><g fill="#9EA89E"><rect x="480" y="386" width="88" height="11" rx="5"/><rect x="480" y="608" width="88" height="11" rx="5"/><rect x="480" y="417" width="60" height="11" rx="5"/><rect x="480" y="639" width="60" height="11" rx="5"/></g><rect x="946" y="181" width="373" height="559" rx="16" fill="#173B35"/><text x="979" y="228" fill="#C8E36A" font-family="Arial, sans-serif" font-size="16" font-weight="700">SYSTEM ACTIVITY</text><text x="979" y="287" fill="#F8F8F3" font-family="Arial, sans-serif" font-size="42" font-weight="700">126</text><text x="979" y="318" fill="#B9C5BB" font-family="Arial, sans-serif" font-size="16">active requests this month</text><path d="M979 594C1026 530 1054 606 1097 517C1140 429 1195 510 1234 424C1261 365 1280 386 1290 350" stroke="#C8E36A" stroke-width="10" stroke-linecap="round"/><line x1="979" y1="647" x2="1289" y2="647" stroke="#547169"/></svg>
